<mxfile host="app.diagrams.net" modified="2024-01-29T07:01:13.908Z" agent="Mozilla/5.0 (Windows NT 10.0; Win64; x64) AppleWebKit/537.36 (KHTML, like Gecko) Chrome/120.0.0.0 Safari/537.36" version="23.0.2" etag="mdMURU_crp9j7dZFtypn" type="github">
  <diagram name="Page-1" id="Sea1qfwd7gU6SsjhpQE8">
    <mxGraphModel>
      <root>
        <mxCell id="0" />
        <mxCell id="1" parent="0" />
      </root>
    </mxGraphModel>
  </diagram>
</mxfile>
